<svg viewBox="0 -49.317919075144516 971.0057803468208 50.08092485549134" xmlns="http://www.w3.org/2000/svg" xmlns:xlink="http://www.w3.org/1999/xlink"
  version="1.1" class="jsx-2263963463 artboard-inner" style="width: 259px; height: 13.3583px; max-height: 100%;">
  <g transform="translate(-4.647398843930636 0) scale(0.9633911368015414)" fill="#0d012b">
    <g id="line1">
      <path d="M47.160-33.768C47.160-44.712 40.320-50.400 26.568-50.400L4.824-50.400L4.824 0L17.136 0L17.136-17.280L26.568-17.280C40.320-17.280 47.160-22.824 47.160-33.768ZM34.704-33.768C34.704-28.656 30.888-27.360 25.848-27.360L17.136-27.360L17.136-40.248L25.848-40.248C30.888-40.248 34.704-38.880 34.704-33.768Z"></path>
      <path d="M123.026-51.192C105.242-51.192 98.186-39.744 98.186-25.200C98.186-10.656 105.242 0.792 123.026 0.792C140.882 0.792 147.938-10.656 147.938-25.200C147.938-39.744 140.882-51.192 123.026-51.192ZM123.026-9.720C114.098-9.720 110.786-16.200 110.786-25.200C110.786-34.200 114.098-40.680 123.026-40.680C132.026-40.680 135.338-34.200 135.338-25.200C135.338-16.200 132.026-9.720 123.026-9.720Z"></path>
      <path d="M243.605-43.992C236.837-47.736 229.781-51.192 221.501-51.192C209.405-51.192 200.405-42.840 200.405-25.200C200.405-7.488 209.405 0.792 221.501 0.792C229.781 0.792 236.837-2.664 243.605-6.408L237.917-15.480C232.589-12.528 227.621-10.224 223.013-10.224C216.605-10.224 213.005-16.056 213.005-25.200C213.005-34.344 216.605-40.176 223.013-40.176C227.621-40.176 232.589-37.872 237.917-34.920Z"></path>
      <path d="M296.647 0L308.959 0L308.959-12.456L314.143-18.432L328.255 0L342.871 0L321.559-26.928L342.007-50.400L327.031-50.400L308.959-28.080L308.959-50.400L296.647-50.400Z"></path>
      <path d="M431.554 0L431.554-10.368L406.858-10.368L406.858-20.160L426.730-20.160L426.730-30.312L406.858-30.312L406.858-40.032L431.194-40.032L431.194-50.400L394.546-50.400L394.546 0Z"></path>
      <path d="M523.620-40.032L523.620-50.400L482.220-50.400L482.220-40.032L496.908-40.032L496.908 0L509.148 0L509.148-40.032Z"></path>
    </g>
  </g>
  <g transform="translate(547.6208092485549 0) scale(0.9633911368015414)" fill="#0d012b">
    <g id="line2">
      <path d="M48.240 0L52.920 0L52.920-50.400L47.880-50.400L30.096-13.680L12.240-50.400L7.272-50.400L7.272 0L11.952 0L11.952-42.408L28.440-8.424L31.752-8.424L48.240-42.480Z"></path>
      <path d="M145.634 0L145.634-4.104L119.138-4.104L119.138-23.184L140.738-23.184L140.738-27.216L119.138-27.216L119.138-46.296L145.202-46.296L145.202-50.400L114.458-50.400L114.458 0Z"></path>
      <path d="M239.573-43.776C234.533-47.232 228.125-51.192 220.925-51.192C210.629-51.192 201.413-43.488 201.413-25.200C201.413-6.912 210.629 0.792 220.925 0.792C228.125 0.792 234.533-3.168 239.573-6.624L236.981-10.008C233.093-7.344 227.189-3.456 221.069-3.456C212.501-3.456 206.309-11.376 206.309-25.200C206.309-39.024 212.501-46.944 221.069-46.944C227.189-46.944 233.093-43.056 236.981-40.392Z"></path>
      <path d="M332.791-50.400L328.111-50.400L328.111-17.784C328.111-9.792 325.663-3.384 314.647-3.384C303.487-3.384 301.039-9.792 301.039-17.784L301.039-50.400L296.359-50.400L296.359-17.784C296.359-7.344 300.751 0.792 314.647 0.792C328.399 0.792 332.791-7.344 332.791-17.784Z"></path>
      <path d="M434.794 0L439.474 0L439.474-50.400L434.434-50.400L416.650-13.680L398.794-50.400L393.826-50.400L393.826 0L398.506 0L398.506-42.408L414.994-8.424L418.306-8.424L434.794-42.480Z"></path>
    </g>
  </g>
</svg>